<svg id="Layer_1" data-name="Layer 1" xmlns="http://www.w3.org/2000/svg" viewBox="0 0 67.48 14.59"><defs><style>.cls-1{fill:#fff6e5;}</style></defs><path class="cls-1" d="M25.08,6.44c-5.59,5.09-11.56,9.2-15.66,8.33s-6.84-2.49-7.59-3.48,4.23,7.7,15.42,7,17.53-6.34,18-8.46a14.06,14.06,0,0,0,0-4.84S30.68,1.34,25.08,6.44Z" transform="translate(-1.76 -3.71)"/><path class="cls-1" d="M69.16,11.29c-.74,1-3.48,2.61-7.58,3.48S51.51,11.53,45.92,6.44,35.72,5,35.72,5a14.06,14.06,0,0,0,0,4.84c.5,2.12,6.84,7.71,18,8.46S69.91,10.29,69.16,11.29Z" transform="translate(-1.76 -3.71)"/></svg>